<svg xmlns="http://www.w3.org/2000/svg" width="32" height="32"><g fill-rule="evenodd" clip-rule="evenodd" fill="#ffffff"><path d="M30.391 12.68l-3.064-.614c-.154-.443-.336-.873-.537-1.289l1.736-2.604c.529-.793.424-1.85-.25-2.523l-1.924-1.924c-.387-.387-.898-.586-1.416-.586-.383 0-.77.11-1.107.336l-2.604 1.735c-.418-.202-.848-.382-1.291-.536l-.614-3.065c-.186-.936-1.008-1.608-1.961-1.608h-2.72c-.953 0-1.774.673-1.961 1.608l-.614 3.065c-.443.154-.873.335-1.289.536l-2.603-1.735c-.339-.226-.725-.336-1.109-.336-.517 0-1.028.199-1.415.586l-1.923 1.924c-.674.674-.779 1.73-.25 2.523l1.735 2.604c-.202.417-.382.847-.536 1.29l-3.066.613c-.935.187-1.608 1.008-1.608 1.961v2.72c0 .953.673 1.775 1.608 1.961l3.065.615c.154.443.335.873.536 1.289l-1.734 2.604c-.529.793-.424 1.85.25 2.523l1.924 1.924c.387.387.898.586 1.415.586.384 0 .771-.111 1.108-.336l2.604-1.736c.417.203.847.383 1.29.537l.613 3.064c.187.936 1.008 1.609 1.961 1.609h2.72c.953 0 1.775-.674 1.961-1.609l.615-3.064c.443-.154.873-.336 1.289-.537l2.604 1.736c.338.225.725.336 1.107.336.518 0 1.029-.199 1.416-.586l1.924-1.924c.674-.674.779-1.73.25-2.523l-1.736-2.604c.203-.418.383-.848.537-1.291l3.064-.613c.935-.185 1.609-1.008 1.609-1.961v-2.72c0-.953-.674-1.774-1.609-1.961zm-3.457 5.295c-.695.139-1.264.635-1.496 1.305-.129.369-.279.727-.447 1.074-.311.639-.258 1.393.135 1.982l1.736 2.604-1.924 1.924-2.604-1.736c-.334-.223-.721-.336-1.109-.336-.297 0-.596.066-.871.199-.348.168-.705.32-1.076.449-.668.232-1.164.801-1.303 1.496l-.615 3.066h-2.72l-.613-3.066c-.139-.695-.635-1.264-1.304-1.496-.369-.129-.728-.279-1.075-.447-.276-.135-.574-.201-.872-.201-.389 0-.775.113-1.109.336l-2.604 1.736-1.924-1.924 1.735-2.604c.393-.59.444-1.344.137-1.98-.168-.348-.319-.705-.448-1.076-.232-.668-.802-1.164-1.496-1.303l-3.065-.615-.002-2.721 3.066-.613c.694-.139 1.264-.635 1.496-1.304.129-.369.278-.728.447-1.075.31-.638.258-1.392-.136-1.981l-1.734-2.604 1.923-1.924 2.604 1.735c.334.223.721.336 1.109.336.297 0 .595-.066.871-.199.347-.168.705-.319 1.075-.448.669-.232 1.165-.802 1.304-1.496l.614-3.065 2.72-.001.613 3.066c.139.694.635 1.264 1.305 1.496.369.129.727.278 1.074.447.277.134.574.2.873.2.389 0 .775-.113 1.109-.336l2.604-1.735 1.924 1.924-1.736 2.604c-.393.59-.443 1.343-.137 1.98.168.347.32.705.449 1.075.232.669.801 1.165 1.496 1.304l3.064.614.003 2.72-3.066.614zm-10.934-8.974c-3.865 0-7 3.135-7 7 0 3.866 3.135 7 7 7s7-3.135 7-7-3.135-7-7-7zm0 13.126c-3.382 0-6.125-2.744-6.125-6.125 0-3.382 2.743-6.125 6.125-6.125 3.381 0 6.125 2.743 6.125 6.125 0 3.381-2.744 6.125-6.125 6.125zm0-10.126c-2.21 0-4 1.79-4 4 0 2.209 1.79 4 4 4 2.209 0 4-1.791 4-4s-1.791-4-4-4zm0 7.001c-1.656 0-3-1.344-3-3s1.344-3 3-3 3 1.344 3 3-1.344 3-3 3z"/></g></svg>
