<svg xmlns="http://www.w3.org/2000/svg" width="32" height="32"><g fill-rule="evenodd" clip-rule="evenodd" fill="#fff"><path d="M16 0c-8.837 0-16 7.163-16 16s7.163 16 16 16 16-7.163 16-16-7.163-16-16-16zm0 29c-7.18 0-13-5.82-13-13s5.82-13 13-13 13 5.82 13 13-5.82 13-13 13zm9.414-14.414l-8-8c-.781-.781-2.047-.781-2.828 0s-.781 2.047 0 2.828l4.586 4.586h-11.172c-1.105 0-2 .895-2 2s.895 2 2 2h11.172l-4.586 4.586c-.781.781-.781 2.047 0 2.829.391.39.902.586 1.414.586s1.024-.195 1.414-.586l8-8c.781-.781.781-2.047 0-2.828z"/></g></svg>
