<svg xmlns="http://www.w3.org/2000/svg" width="80" height="32"><g fill-rule="evenodd" clip-rule="evenodd" fill="#ffffff"><path d="M31.975 18.983l-2.981 2.983-2.983-2.983-2.983 2.983-2.981-2.983 2.981-2.983-2.981-2.983 2.981-2.983 2.983 2.983 2.983-2.983 2.981 2.983-2.981 2.983 2.981 2.983zm-15.958 13.009l-7.996-7.996h-5.997c-1.105 0-1.999-.894-1.999-1.999v-11.994c0-1.105.894-1.999 1.999-1.999h5.997l7.996-7.996s1.999-.25 1.999 1.999v27.986c0 2.249-1.999 1.999-1.999 1.999zm-1.999-23.988l-3.998 3.998h-5.997v7.996h5.997l3.998 3.998v-15.992zM67.998 31.469v-4.209c4.648-1.651 7.996-6.044 7.996-11.26 0-5.214-3.348-9.608-7.996-11.26v-4.209c6.893 1.78 11.994 8.019 11.994 15.469s-5.101 13.69-11.994 15.469zm-3.998.523l-7.996-7.996h-5.997c-1.105 0-1.999-.894-1.999-1.999v-11.994c0-1.105.894-1.999 1.999-1.999h5.997l7.996-7.996s1.999-.25 1.999 1.999v27.986c0 2.249-1.999 1.999-1.999 1.999zm-1.999-23.988l-3.998 3.998h-5.997v7.996h5.997l3.998 3.998v-15.992zm11.994 7.996c0 3.721-2.553 6.821-5.997 7.713v-4.269c1.191-.693 1.999-1.968 1.999-3.444s-.808-2.751-1.999-3.444v-4.269c3.444.892 5.997 3.992 5.997 7.713z"/></g></svg>
